# xmcd
#
# Track frame offsets: 
#        150
#        16419
#        34472
#        57025
#        71838
#        92466
#        105534
#        127909
#        142768
#        161675
#
# Disc length: 2397 seconds
#
# Revision: 2
# Processed by: cddbd v1.5.2PL0 Copyright (c) Steve Scherf et al.
# Submitted via: ExactAudioCopyFreeDBPlugin 1.0
#
DISCID=7c095b0a
DTITLE=Olivia Newton-John - Stronger Than Before
DYEAR=2005
DGENRE=Pop Rock
TTITLE0=Stronger Than Before
TTITLE1=When You Believe
TTITLE2=Phenomenal Woman
TTITLE3=Under the Skin
TTITLE4=Pass It On
TTITLE5=That's All I Know for Sure
TTITLE6=When I Needed You
TTITLE7=Can I Trust Your Arms
TTITLE8=Don't Stop Believin'
TTITLE9=Serenity
EXTD=
EXTT0=
EXTT1=
EXTT2=
EXTT3=
EXTT4=
EXTT5=
EXTT6=
EXTT7=
EXTT8=
EXTT9=
PLAYORDER=
